<?xml version="1.0" encoding="utf-8"?>
<!-- Generator: Adobe Illustrator 22.0.1, SVG Export Plug-In . SVG Version: 6.00 Build 0)  -->
<svg version="1.1" id="Capa_1" focusable="false" xmlns="http://www.w3.org/2000/svg" xmlns:xlink="http://www.w3.org/1999/xlink"
	 x="0px" y="0px" viewBox="0 0 352 512" style="enable-background:new 0 0 352 512;" xml:space="preserve">
<style type="text/css">
	.st0{fill:#FF0000;}
</style>
<path class="st0" d="M242.7,256L176,322.7l100.1,100.1c12.3,12.3,32.2,12.3,44.5,0l22.2-22.2c12.3-12.3,12.3-32.2,0-44.5L242.7,256z
	"/>
<path class="st0" d="M139,351.9c-75.7,0-137-61.3-137-137s61.3-137,137-137s137,61.3,137,137S214.7,351.9,139,351.9z M139,304.9
	c49.7,0,90-40.3,90-90s-40.3-90-90-90s-90,40.3-90,90S89.3,304.9,139,304.9z"/>
</svg>
